<?xml version="1.0" standalone="no"?>
<!DOCTYPE svg PUBLIC "-//W3C//DTD SVG 20010904//EN"
 "http://www.w3.org/TR/2001/REC-SVG-20010904/DTD/svg10.dtd">
<svg version="1.0" xmlns="http://www.w3.org/2000/svg"
 width="4508.000000pt" height="5445.000000pt" viewBox="0 0 4508.000000 5445.000000"
 preserveAspectRatio="xMidYMid meet">

<g transform="translate(0.000000,5445.000000) scale(0.100000,-0.100000)"
fill="#000000" stroke="none">
<path d="M21535 54440 c-1273 -31 -2593 -230 -3775 -570 -1511 -435 -2960
-1131 -4130 -1985 -1390 -1013 -2464 -2206 -3239 -3595 -126 -226 -329 -634
-435 -875 -48 -110 -95 -208 -104 -217 -16 -15 -265 -17 -3547 -23 -1941 -4
-3676 -10 -3855 -15 -305 -7 -329 -8 -384 -30 -79 -30 -146 -97 -175 -173 -15
-43 -23 -97 -31 -217 -10 -164 10 -8212 42 -16500 3 -720 2 -788 -14 -822 -9
-21 -55 -78 -101 -126 -121 -128 -130 -183 -53 -305 45 -72 76 -149 83 -207 5
-43 3 -49 -19 -64 -24 -15 -32 -15 -126 8 -154 37 -245 49 -382 50 -139 1
-182 -9 -303 -72 -167 -86 -280 -250 -342 -496 -49 -193 -44 -289 26 -501 67
-202 65 -326 -8 -467 -49 -94 -130 -167 -396 -357 -125 -89 -234 -172 -242
-185 -39 -60 -26 -114 47 -194 59 -65 88 -134 88 -213 0 -58 5 -78 39 -146 52
-102 134 -193 208 -229 67 -33 138 -36 343 -15 163 17 339 10 376 -14 14 -9
40 -37 57 -62 79 -114 149 -192 190 -212 91 -44 239 -13 439 91 54 28 100 49
102 47 4 -4 19 -3620 36 -8499 19 -5451 32 -10979 32 -13690 0 -1521 4 -2859
8 -2975 6 -156 12 -222 25 -257 21 -59 85 -132 139 -160 83 -43 136 -49 521
-59 204 -5 4373 -18 9265 -29 4892 -12 13251 -32 18575 -45 5324 -13 10007
-25 10406 -26 l727 -2 43 24 c59 33 78 70 89 176 5 48 14 763 20 1588 6 825
17 2445 25 3600 36 5221 77 10557 111 14505 17 1995 12 1866 73 1909 14 10 60
28 101 40 167 50 281 135 378 281 90 133 96 136 375 176 535 76 633 98 733
162 119 77 229 240 314 462 57 150 70 173 110 192 19 9 83 39 141 66 181 85
228 145 237 306 l5 90 68 72 c104 110 158 240 159 381 0 28 5 55 11 58 6 4 76
20 156 36 205 40 263 73 279 156 11 59 -15 140 -92 294 -86 168 -204 352 -319
492 -126 155 -172 225 -191 294 -28 102 -17 159 74 398 128 338 154 456 156
710 1 148 -1 163 -22 202 -24 47 -84 87 -144 98 -20 4 -44 15 -53 25 -9 10
-35 71 -57 137 -70 204 -83 221 -238 287 -159 67 -285 88 -413 67 -59 -10 -55
-13 -183 144 -111 137 -200 238 -362 408 -116 122 -188 219 -218 298 -9 24
-22 49 -28 56 -19 20 -144 35 -326 38 -96 2 -187 8 -203 14 -37 14 -121 93
-171 162 -23 30 -59 97 -80 147 -41 100 -72 132 -148 153 -70 18 -65 -48 -55
769 7 549 18 2021 48 6805 10 1637 13 1813 28 1845 14 31 28 40 116 75 135 55
232 120 342 230 106 106 140 166 151 272 7 64 12 73 69 145 33 42 74 103 89
135 26 52 29 68 28 153 0 70 -8 123 -28 200 -44 166 -36 232 43 353 41 63 44
73 71 242 7 41 32 118 61 185 72 166 75 236 12 332 -35 53 -25 71 66 118 95
49 163 115 237 228 143 216 193 368 199 608 l4 131 50 100 c37 74 62 110 95
137 80 65 106 159 66 241 -37 79 -83 110 -203 141 l-65 16 -185 -96 c-215
-112 -191 -108 -479 -75 -307 35 -369 20 -510 -124 -85 -87 -172 -143 -203
-130 -19 7 -19 -5 5 3702 6 872 5 1404 -1 1458 -11 102 -29 146 -76 195 -45
46 -103 71 -228 98 -125 27 50 25 -5985 75 -981 9 -1788 19 -1792 23 -3 4 -65
122 -136 262 -495 979 -1065 1817 -1773 2606 -184 205 -609 629 -814 814
-1073 964 -2392 1786 -3805 2373 -1536 638 -3428 1040 -5085 1082 -456 11
-578 12 -880 5z m1015 -361 c2012 -95 4005 -612 5725 -1484 1026 -521 1884
-1102 2715 -1839 174 -154 741 -721 896 -896 235 -265 504 -589 504 -609 0 -5
-33 -22 -72 -37 -54 -20 -93 -44 -148 -92 -96 -85 -237 -220 -359 -347 -53
-55 -99 -101 -103 -103 -17 -8 -6 22 24 64 l31 44 -35 52 c-92 138 -348 458
-563 703 -923 1051 -2293 1999 -3735 2583 -1375 556 -2742 864 -4315 973 -245
17 -1148 23 -1445 10 -1023 -45 -1914 -170 -2858 -402 -1915 -470 -3739 -1407
-5097 -2618 -302 -269 -744 -732 -1012 -1059 -773 -943 -1303 -2032 -1564
-3211 l-34 -154 -1510 7 c-830 4 -1906 11 -2390 16 -484 5 -1519 13 -2300 16
l-1420 7 -30 -25 -30 -26 0 -4084 c1 -2245 3 -5863 5 -8038 l5 -3955 -80 -7
c-113 -10 -211 -34 -284 -68 -34 -17 -74 -30 -87 -30 -13 0 -52 21 -86 46
-112 82 -200 117 -337 135 -77 10 -94 9 -170 -11 -46 -11 -87 -18 -92 -13 -7
8 -21 2834 -40 8308 -6 1744 -15 4428 -20 5965 -5 1537 -10 2822 -12 2855 l-2
60 1935 6 c1064 4 2827 9 3918 13 1825 5 1985 6 2017 22 40 19 53 43 196 369
99 227 292 619 414 840 758 1379 1799 2548 3130 3514 777 564 1576 1015 2490
1404 1631 694 3405 1067 5280 1111 194 4 712 -4 945 -15z m-8008 -4868 c85
-33 156 -68 271 -134 101 -58 181 -82 354 -107 151 -22 311 -59 379 -89 58
-26 115 -81 184 -177 75 -103 141 -162 222 -200 34 -16 130 -62 212 -102 169
-84 220 -127 249 -208 26 -74 109 -204 160 -251 24 -22 64 -52 90 -67 116 -68
376 -138 581 -155 65 -6 120 -12 122 -14 2 -2 -16 -46 -40 -99 -25 -52 -68
-162 -96 -244 -86 -249 -123 -307 -349 -556 -153 -170 -344 -430 -479 -655
-107 -179 -144 -257 -151 -320 -3 -32 -10 -57 -15 -56 -5 1 -46 100 -91 220
-45 120 -134 346 -197 503 -63 157 -152 393 -198 525 -110 319 -146 413 -224
585 -236 516 -597 1049 -985 1453 -92 96 -111 121 -111 146 0 40 13 40 112 2z
m17878 -127 c-12 -26 -20 -68 -20 -98 0 -49 -8 -66 -113 -247 -176 -300 -354
-574 -542 -834 -103 -142 -247 -341 -474 -654 l-126 -173 -12 140 c-14 175
-24 222 -78 392 -62 191 -65 219 -61 446 l3 201 42 57 c78 106 172 205 268
286 133 111 164 116 222 34 56 -77 98 -114 131 -114 39 0 127 75 330 279 85
86 176 173 201 194 60 49 209 137 231 137 16 0 16 -4 -2 -46z m-17872 -180
c114 -147 252 -368 339 -540 201 -396 304 -670 449 -1199 122 -443 183 -623
340 -1009 36 -87 63 -161 60 -164 -3 -2 -43 11 -88 31 -602 255 -1097 281
-1617 82 -119 -45 -153 -45 -216 -1 -48 35 -86 47 -270 87 -175 37 -277 74
-327 119 -70 61 -148 228 -148 315 0 88 77 294 149 399 17 24 78 95 137 157
61 64 115 131 126 156 26 59 25 161 -3 260 -17 62 -20 95 -17 163 6 103 29
153 116 255 106 124 463 455 726 674 152 126 166 146 166 237 0 71 9 68 78
-22z m18205 -141 c149 -218 308 -472 447 -714 133 -231 416 -796 460 -916 39
-108 62 -140 119 -166 45 -21 63 -21 891 -29 465 -4 1349 -11 1965 -17 616 -6
1899 -18 2850 -26 952 -9 1845 -19 1985 -23 l255 -7 3 -405 c1 -223 -4 -1383
-12 -2579 -14 -2090 -15 -2174 -33 -2191 -12 -13 -58 -25 -153 -39 -74 -12
-244 -41 -378 -65 -246 -44 -274 -54 -287 -97 -4 -11 -11 -19 -16 -19 -13 0
-11 711 6 1675 8 457 18 1224 21 1705 7 873 7 875 -14 900 l-20 25 -1634 6
c-898 3 -2423 7 -3389 8 -966 0 -2000 4 -2298 8 -538 6 -541 6 -546 27 -2 12
-20 107 -40 211 -62 323 -142 635 -235 909 -51 153 -55 189 -36 316 36 245 30
393 -29 675 -48 231 -63 422 -46 602 6 76 17 195 23 266 6 70 14 127 19 127 4
0 59 -75 122 -167z m-1888 -1108 c25 -121 70 -248 130 -371 93 -190 94 -247 3
-396 -186 -307 -513 -741 -817 -1083 -163 -184 -867 -882 -878 -871 -3 3 -5
110 -4 238 2 189 -2 268 -20 418 -21 169 -23 231 -23 700 -1 463 -3 521 -19
575 -39 133 -131 288 -222 375 -39 38 -78 98 -53 85 7 -5 37 -26 66 -48 95
-72 172 -61 257 39 54 63 78 78 111 70 13 -4 86 -65 161 -137 172 -164 272
-245 343 -278 116 -54 263 -23 347 73 21 24 103 158 182 297 79 140 202 355
275 478 l131 223 6 -153 c4 -85 14 -190 24 -234z m-13218 0 c328 -94 441 -136
540 -202 92 -60 146 -124 291 -343 222 -337 284 -409 391 -458 47 -22 73 -27
161 -29 57 -1 110 -5 117 -8 18 -6 16 -43 -6 -106 -49 -142 -105 -212 -274
-338 -72 -54 -278 -221 -457 -370 -326 -273 -375 -309 -570 -415 -259 -142
-534 -349 -626 -472 -67 -90 -97 -151 -179 -369 -37 -99 -71 -184 -75 -189
-21 -22 -354 591 -520 957 l-62 138 17 67 c57 227 191 488 505 982 169 266
249 404 313 540 126 270 240 567 238 623 -1 30 3 37 18 37 11 0 91 -20 178
-45z m11159 -197 c39 -35 75 -117 90 -201 12 -70 21 -93 62 -152 85 -124 99
-193 86 -440 -5 -93 -9 -289 -8 -435 0 -301 6 -344 94 -705 77 -319 125 -580
115 -627 -8 -35 -166 -176 -460 -410 -330 -262 -472 -378 -646 -530 -260 -226
-547 -468 -556 -468 -4 0 -7 161 -5 357 4 388 -4 496 -44 652 -62 239 -203
478 -440 745 -121 136 -164 194 -205 281 -96 199 -121 490 -73 839 33 242 79
378 152 452 71 72 475 346 622 421 81 42 186 68 234 59 29 -6 58 -29 139 -110
56 -57 122 -114 147 -127 63 -32 148 -32 215 1 68 34 246 213 318 320 77 113
108 128 163 78z m-296 -40 c0 -23 -63 -109 -114 -156 -49 -44 -160 -112 -185
-112 -25 0 -9 29 23 40 46 15 111 73 154 138 46 69 122 126 122 90z m1575
-300 c17 -16 -23 -38 -59 -31 -65 12 -176 76 -176 103 0 9 221 -58 235 -72z
m-10717 -585 c10 -16 33 -66 52 -113 79 -204 178 -358 331 -515 59 -61 113
-123 118 -138 6 -16 11 -57 11 -91 0 -122 39 -284 100 -420 66 -145 199 -344
333 -497 37 -42 67 -81 67 -86 0 -5 -26 -17 -57 -27 -76 -24 -150 -62 -308
-156 -195 -117 -286 -152 -610 -236 -293 -76 -395 -127 -596 -302 -354 -307
-661 -699 -865 -1105 -30 -60 -59 -107 -65 -105 -5 2 -38 67 -73 145 -132 293
-258 510 -478 824 -48 69 -101 157 -117 195 -15 38 -60 118 -100 178 -39 61
-71 120 -71 132 0 29 178 388 231 466 53 78 137 161 212 209 79 51 259 143
429 218 282 124 411 203 618 376 395 331 585 577 710 922 44 120 63 153 90
153 10 0 27 -12 38 -27z m-4602 -562 c45 -11 148 -47 230 -79 194 -78 374
-135 526 -167 244 -52 303 -81 385 -190 56 -74 69 -99 128 -250 150 -381 370
-746 664 -1105 33 -41 60 -79 58 -84 -2 -5 -43 -20 -93 -33 -49 -13 -179 -54
-289 -91 -193 -64 -203 -67 -300 -67 -55 0 -192 8 -305 19 -317 29 -360 24
-621 -63 -276 -92 -412 -159 -673 -330 -428 -280 -672 -401 -874 -431 -85 -13
-548 -50 -622 -50 -132 0 -191 46 -236 180 -25 76 -28 99 -28 225 0 124 3 153
29 250 25 95 29 128 30 245 0 158 -10 189 -100 289 -60 67 -70 98 -60 180 25
217 118 409 258 537 66 60 128 94 233 128 45 15 90 36 100 47 24 27 23 76 -5
174 -28 100 -23 175 16 247 39 72 110 119 246 164 62 20 192 74 289 121 177
84 179 84 300 99 68 7 164 23 213 34 134 29 129 29 280 25 97 -2 165 -10 221
-24z m16795 -278 c21 -63 4 -181 -51 -367 -106 -358 -212 -785 -300 -1211 -56
-276 -49 -255 -170 -505 -98 -204 -240 -541 -285 -678 -9 -30 -21 -50 -25 -45
-22 21 -119 420 -169 688 -31 169 -49 221 -105 310 -74 115 -139 265 -189 433
-15 49 -15 52 5 77 28 36 87 72 167 102 183 68 272 151 548 508 55 72 136 168
179 215 146 158 234 279 304 420 52 105 70 115 91 53z m145 -198 c3 -8 -8 -86
-25 -173 -17 -87 -31 -181 -31 -208 1 -84 51 -169 134 -228 80 -57 145 -128
160 -176 20 -59 33 -168 47 -370 12 -182 7 -344 -18 -581 -15 -151 -15 -158 3
-195 10 -21 35 -49 54 -61 79 -50 77 -46 44 -77 -45 -42 -197 -113 -329 -152
-194 -57 -411 -173 -580 -309 -86 -69 -85 -68 -90 -63 -3 3 5 29 19 59 47 109
116 300 154 435 44 154 62 252 92 518 21 182 109 734 136 855 8 36 37 141 64
232 28 91 64 226 80 300 44 194 49 209 66 209 8 0 17 -7 20 -15z m-4879 -187
c32 -37 126 -175 190 -283 199 -331 356 -746 423 -1118 25 -138 42 -384 31
-460 l-8 -57 -254 -253 c-140 -139 -317 -321 -393 -405 -111 -121 -142 -150
-151 -140 -26 27 -87 192 -136 364 -174 612 -386 912 -776 1100 -62 30 -113
58 -113 62 1 4 21 22 45 39 69 51 95 106 111 231 30 229 63 344 112 382 41 33
82 26 165 -30 102 -68 152 -68 196 3 21 35 63 179 82 282 22 125 68 167 227
205 61 15 113 35 155 61 34 21 65 38 68 39 3 0 15 -10 26 -22z m-6010 -833
c60 -30 92 -73 127 -169 14 -40 38 -83 57 -102 50 -52 91 -60 214 -45 151 19
235 -2 263 -64 34 -73 67 -255 77 -425 5 -73 13 -117 26 -143 32 -63 30 -64
-78 -71 -356 -24 -598 -126 -813 -345 -176 -179 -351 -461 -495 -796 -55 -127
-165 -455 -191 -567 -10 -45 -23 -78 -30 -78 -7 0 -25 15 -41 34 -101 121
-514 562 -575 614 -80 69 -216 142 -313 168 -80 21 -268 30 -323 15 -54 -15
-107 -61 -137 -121 l-24 -47 -79 -5 c-124 -9 -218 -61 -283 -155 -17 -24 -35
-43 -41 -41 -11 4 -95 147 -165 279 -33 63 -34 67 -20 100 29 69 402 583 573
790 108 131 310 336 429 434 206 170 339 241 618 329 242 77 381 149 557 291
165 133 195 143 436 144 173 1 182 0 231 -24z m9337 -252 c3 -16 10 -57 16
-93 34 -205 115 -563 142 -629 17 -41 71 -134 120 -208 105 -159 138 -224 180
-346 39 -117 47 -226 24 -316 -17 -66 -30 -94 -133 -292 -110 -212 -187 -433
-257 -737 -20 -84 -51 -190 -69 -235 -91 -220 -171 -397 -177 -390 -4 5 -37
94 -75 198 -69 193 -290 751 -384 970 -131 303 -336 620 -575 887 -47 53 -86
100 -86 104 0 4 26 36 58 72 31 35 98 113 147 172 112 134 123 142 270 219
279 146 540 355 724 584 30 37 58 67 62 67 4 0 10 -12 13 -27z m-4949 2 c115
-24 183 -64 261 -153 38 -42 157 -167 265 -278 l197 -201 107 -216 c122 -247
200 -381 280 -482 133 -168 168 -216 215 -296 28 -46 53 -94 56 -107 9 -34
-435 -625 -780 -1035 -259 -308 -398 -503 -551 -770 -37 -65 -71 -115 -76
-110 -14 14 -96 292 -144 488 -50 203 -87 310 -155 445 -85 169 -171 275 -271
333 -56 33 -280 135 -433 198 -66 27 -144 68 -173 90 -50 37 -113 111 -113
130 0 5 22 33 48 62 142 156 193 279 237 572 54 353 109 547 212 747 118 232
329 477 473 549 98 50 215 61 345 34z m-12541 -120 c40 -85 22 -101 -38 -35
-26 29 -36 49 -36 73 0 19 3 37 7 41 8 8 47 -37 67 -79z m4253 -202 c13 -8 61
-66 107 -127 46 -61 121 -154 166 -206 150 -174 204 -268 356 -622 75 -176
184 -461 184 -483 0 -11 -6 -15 -17 -11 -10 3 -59 10 -110 16 -176 20 -258 -6
-588 -185 -233 -126 -322 -164 -464 -200 -170 -43 -291 -50 -530 -30 -194 15
-225 15 -433 1 -605 -44 -699 -68 -1083 -281 -193 -107 -237 -125 -307 -125
-126 0 -164 82 -133 289 18 125 14 190 -16 261 -26 58 -44 77 -104 108 -39 20
-69 26 -135 29 -47 2 -95 6 -107 9 -35 7 -91 61 -103 100 -11 31 -9 44 11 97
19 49 24 82 24 158 0 91 -2 99 -39 172 -21 41 -35 81 -31 87 5 8 23 9 54 5
176 -24 594 119 951 325 265 153 391 208 700 308 167 54 272 70 540 82 357 16
385 21 561 100 59 27 158 65 220 85 204 66 271 74 326 38z m15398 -489 c71
-47 127 -107 156 -169 27 -55 29 -69 29 -171 0 -89 5 -127 25 -194 32 -105 31
-130 -2 -183 -102 -162 -223 -467 -263 -667 -12 -58 -25 -109 -29 -113 -5 -5
-62 -24 -127 -43 -253 -74 -293 -88 -409 -141 -168 -77 -338 -144 -487 -191
-148 -48 -165 -56 -280 -134 -106 -73 -251 -196 -461 -392 l-157 -147 19 48
c66 168 160 428 198 548 141 446 238 685 378 935 65 116 98 146 285 262 345
214 609 414 845 639 55 52 113 105 129 117 41 31 100 29 151 -4z m-10524 -28
c67 -46 151 -175 185 -283 21 -69 37 -299 31 -428 -4 -69 -21 -181 -45 -300
-46 -219 -66 -410 -60 -557 4 -90 9 -112 38 -173 57 -120 53 -249 -10 -348
-26 -41 -27 -50 -33 -217 -9 -230 -48 -495 -77 -523 -9 -9 -17 -5 -34 17 -133
182 -186 247 -281 341 -206 205 -445 351 -670 410 -31 8 -114 17 -185 20 -95
4 -151 12 -217 31 -100 29 -199 78 -214 107 -22 40 61 360 147 572 78 190 287
568 410 740 203 285 505 498 843 595 91 26 129 25 172 -4z m7046 -507 c92
-158 265 -498 333 -654 108 -248 136 -299 192 -350 28 -25 69 -55 89 -65 20
-11 53 -38 72 -60 37 -43 131 -254 191 -427 82 -238 172 -629 160 -694 -7 -36
-251 -656 -266 -675 -4 -6 -39 -16 -78 -23 -142 -23 -313 -91 -430 -170 -25
-17 -51 -31 -59 -31 -17 0 -817 803 -932 935 -160 185 -319 398 -440 591 -185
292 -399 650 -399 666 0 12 20 28 63 49 123 62 334 183 429 246 53 35 181 135
285 221 370 308 698 572 708 569 6 -2 43 -59 82 -128z m-9909 -524 c154 -32
296 -104 403 -203 34 -31 171 -181 304 -332 255 -289 330 -366 448 -454 163
-121 253 -153 477 -167 161 -10 231 -20 315 -46 67 -20 205 -84 205 -94 0 -5
-73 -80 -161 -166 -247 -242 -465 -514 -544 -677 -44 -93 -83 -228 -97 -343
-7 -51 -15 -92 -19 -91 -4 2 -44 64 -89 138 -187 310 -348 509 -678 840 -325
326 -404 421 -527 635 -129 224 -207 446 -265 753 -18 93 -20 118 -10 148 24
71 97 89 238 59z m-1113 -143 c35 -6 52 -21 148 -132 153 -175 142 -152 107
-248 -98 -268 -80 -488 83 -1027 88 -289 99 -416 42 -475 -46 -48 -83 -53
-199 -28 -74 16 -136 22 -231 22 -120 1 -151 -4 -410 -58 -472 -98 -683 -167
-990 -325 -175 -91 -253 -124 -333 -142 -66 -14 -956 -21 -987 -7 -28 13 -41
44 -50 118 -18 168 -115 305 -252 356 -106 39 -187 113 -230 209 -28 64 -22
217 17 395 58 269 64 323 51 438 -15 126 -41 214 -81 267 -38 48 -39 47 105
104 205 82 227 85 580 78 171 -4 483 -14 695 -23 212 -9 432 -13 490 -10 325
18 617 126 893 329 111 82 208 131 302 151 75 16 186 19 250 8z m5969 -116
c36 -62 88 -121 148 -171 59 -47 261 -176 440 -279 91 -52 132 -84 190 -144
164 -173 278 -334 342 -487 76 -183 206 -535 206 -559 0 -28 -77 -176 -319
-611 -185 -332 -415 -785 -551 -1088 -52 -114 -97 -210 -101 -213 -4 -2 -15
31 -24 74 -65 299 -188 591 -354 839 -126 188 -277 331 -572 540 -193 137
-282 183 -442 228 -32 9 -61 23 -63 30 -16 40 79 453 155 675 130 381 323 746
464 875 65 60 433 335 449 335 3 0 18 -20 32 -44z m19861 -126 c11 -12 15 -27
11 -42 -3 -13 -57 -95 -119 -184 -62 -89 -119 -181 -127 -205 -10 -31 -14 -85
-12 -186 3 -152 -9 -227 -50 -307 -49 -98 -193 -320 -224 -344 -18 -15 -61
-39 -95 -53 -106 -43 -128 -97 -103 -248 19 -114 14 -151 -32 -244 -37 -73
-74 -218 -74 -293 0 -31 -8 -51 -31 -80 -42 -53 -76 -122 -94 -191 -18 -66
-14 -124 17 -273 11 -52 22 -141 25 -198 9 -150 -6 -161 -169 -123 -46 11
-121 25 -168 31 -153 21 -226 40 -306 81 -201 104 -364 152 -564 169 -167 14
-268 33 -413 79 -173 54 -243 66 -397 66 -151 -1 -253 -18 -390 -67 -116 -41
-120 -42 -120 -29 0 42 356 396 725 722 557 491 629 549 1039 839 142 100 307
218 367 261 176 128 361 248 594 386 350 208 572 360 612 418 28 41 69 47 98
15z m-16489 -247 c53 -138 202 -486 267 -625 73 -155 123 -230 285 -431 191
-237 237 -276 449 -387 128 -66 237 -153 350 -278 151 -167 287 -295 356 -337
38 -23 66 -46 64 -54 -4 -27 -80 -43 -232 -51 -119 -6 -161 -12 -205 -29 -61
-25 -186 -105 -365 -237 -142 -103 -303 -211 -390 -260 -133 -74 -399 -179
-605 -239 -74 -21 -153 -52 -194 -76 -38 -21 -72 -39 -75 -39 -4 0 -50 57
-103 128 -127 168 -262 325 -433 502 -162 167 -191 202 -233 286 -44 88 -67
160 -102 329 -17 83 -48 209 -70 282 -22 72 -40 147 -40 166 0 63 229 399 431
632 66 77 174 205 239 285 65 80 166 192 224 248 122 117 315 281 333 282 6 0
28 -44 49 -97z m5093 -25 c28 -232 95 -472 189 -670 61 -130 93 -177 173 -256
40 -40 61 -70 61 -84 0 -19 -81 -378 -112 -498 -7 -26 -24 -47 -62 -75 -29
-22 -134 -119 -233 -215 -191 -185 -284 -255 -440 -333 -124 -61 -235 -101
-240 -84 -2 6 -6 54 -10 105 -8 122 -42 253 -100 382 -26 58 -73 172 -105 253
-33 81 -69 161 -80 177 -26 36 -50 38 -140 9 -37 -11 -116 -24 -185 -29 -233
-17 -342 -55 -585 -203 -161 -98 -366 -201 -386 -193 -14 5 -15 15 -10 56 9
68 59 208 108 302 36 70 48 83 136 149 184 137 528 406 702 549 96 79 258 198
360 266 102 67 237 158 300 201 145 98 294 173 480 239 80 28 150 52 156 53 7
1 16 -40 23 -101z m10021 -221 c0 -18 -79 -77 -96 -70 -17 6 -18 37 -1 51 10
9 67 28 90 31 4 1 7 -5 7 -12z m-20221 -443 c7 -58 16 -193 21 -301 12 -237
19 -258 117 -336 121 -97 210 -243 237 -392 8 -44 19 -126 25 -182 6 -56 24
-172 41 -258 17 -86 29 -162 28 -167 -2 -6 -21 13 -42 41 -58 81 -112 137
-217 222 -53 43 -117 102 -143 131 -83 95 -156 277 -156 389 0 24 7 86 15 138
42 260 58 571 40 781 -5 66 -4 73 8 57 8 -9 19 -63 26 -123z m-716 -144 c157
-143 283 -304 362 -459 18 -36 60 -150 93 -253 67 -206 116 -319 185 -426 63
-97 105 -141 226 -237 166 -130 258 -271 302 -460 11 -50 30 -126 41 -170 39
-150 55 -117 -164 -337 -106 -106 -249 -242 -318 -300 -179 -152 -249 -244
-334 -434 -93 -212 -177 -464 -212 -639 -9 -47 -19 -85 -23 -85 -3 0 -25 58
-47 128 -23 70 -90 231 -149 357 -140 300 -284 625 -397 894 -50 119 -115 275
-145 346 -59 140 -180 380 -237 470 -62 97 -70 121 -69 225 3 263 82 494 226
664 100 117 180 259 236 418 38 108 62 156 117 235 42 59 133 145 164 155 24
8 59 -15 143 -92z m1457 -771 c42 -16 108 -50 147 -76 168 -112 514 -442 596
-569 80 -124 265 -512 427 -897 l84 -199 -67 -201 c-44 -133 -78 -257 -98
-362 -44 -230 -70 -336 -79 -330 -5 3 -29 44 -55 92 -158 297 -407 519 -735
656 -197 83 -230 105 -230 160 0 22 12 49 40 86 56 75 54 106 -11 191 -108
141 -156 293 -146 459 4 53 14 123 23 156 22 81 14 227 -21 365 -33 129 -43
284 -25 401 6 46 17 90 22 97 12 14 20 12 128 -29z m-4700 -2 c0 -18 -107
-179 -174 -262 -104 -129 -141 -267 -141 -520 1 -190 10 -250 81 -500 55 -194
128 -509 121 -528 -2 -6 -48 -11 -118 -12 -74 -1 -131 -7 -164 -18 -58 -19
-165 -79 -389 -218 -87 -55 -164 -99 -171 -99 -20 0 -99 263 -184 606 -62 253
-89 309 -176 359 -70 42 -129 48 -336 34 -152 -10 -194 -10 -233 1 -69 19
-100 60 -125 167 -24 105 -40 211 -41 273 0 37 -31 144 -64 221 -6 14 7 17 91
22 118 8 220 32 373 87 275 98 839 245 1267 329 409 81 383 77 383 58z m7637
-234 c-2 -203 17 -294 92 -448 62 -126 111 -180 380 -420 261 -232 421 -397
514 -532 l27 -40 -26 -58 c-47 -109 -73 -237 -179 -895 -58 -360 -115 -683
-126 -718 -32 -96 -107 -200 -198 -276 -123 -101 -171 -170 -215 -306 -13 -41
-26 -65 -36 -65 -9 0 -48 66 -100 170 -93 185 -129 244 -320 530 -196 293
-346 560 -466 829 -65 146 -125 245 -209 351 -46 57 -63 86 -59 100 15 61 141
290 203 370 194 250 241 337 340 625 58 173 134 383 307 850 30 83 40 100 59
100 10 0 12 -39 12 -167z m6633 -188 c0 -2 -14 -28 -31 -57 -71 -121 -121
-267 -138 -403 -6 -49 -13 -196 -16 -325 -3 -129 -10 -309 -14 -400 -8 -160
-10 -170 -60 -330 -144 -462 -143 -461 -500 -932 -85 -112 -156 -211 -159
-220 -5 -21 -22 -24 -22 -5 0 6 8 35 16 62 11 33 19 108 24 225 7 171 8 179
57 350 87 298 139 592 131 740 -3 60 -14 112 -37 179 -81 240 -111 352 -111
420 0 84 21 166 63 245 30 56 38 64 106 97 40 20 136 58 213 83 76 25 166 62
200 81 72 42 193 132 227 169 21 23 51 35 51 21z m8584 -622 c145 -24 187 -27
426 -27 146 -1 326 3 400 8 l135 9 210 -52 c397 -97 449 -111 455 -121 10 -15
-8 -135 -30 -212 -23 -76 -63 -132 -166 -228 -83 -77 -134 -106 -282 -159 -62
-22 -137 -52 -167 -66 -81 -39 -158 -114 -197 -193 -30 -60 -33 -75 -33 -157
0 -49 7 -122 15 -162 7 -40 12 -75 9 -78 -3 -3 -67 26 -143 64 -215 109 -271
123 -556 141 -275 17 -453 39 -720 90 -140 27 -302 54 -360 61 -142 16 -422 6
-560 -21 -156 -29 -216 -27 -341 15 -57 20 -142 46 -189 58 -47 12 -87 26 -90
30 -3 4 270 235 605 513 l610 506 55 -6 c254 -29 286 -29 500 3 112 17 248 12
414 -16z m-24254 -258 c11 -10 20 -23 20 -28 0 -12 -159 -3 -242 14 -109 22
-59 39 105 35 77 -2 101 -7 117 -21z m5984 -185 c20 -22 36 -49 36 -61 0 -28
-23 -70 -54 -96 -35 -30 -33 -54 9 -117 61 -92 154 -172 252 -217 167 -77 192
-90 265 -138 169 -112 295 -244 418 -442 76 -122 141 -194 288 -316 158 -132
288 -301 416 -543 64 -121 86 -197 86 -291 0 -77 -10 -93 -67 -104 -64 -12
-92 -33 -273 -203 -96 -91 -227 -211 -290 -266 -354 -311 -513 -504 -663 -803
-110 -218 -293 -715 -389 -1053 -22 -80 -44 -149 -48 -153 -13 -15 -103 231
-260 708 -161 490 -414 1232 -487 1430 -24 66 -83 212 -130 325 -95 228 -187
469 -197 516 -6 26 6 61 69 200 96 210 164 377 250 609 73 194 142 343 204
433 21 31 84 111 141 177 56 66 159 193 228 283 74 95 133 162 143 162 9 0 33
-18 53 -40z m-4702 -591 c-1 -52 -11 -175 -22 -274 -10 -99 -21 -200 -23 -225
-14 -147 38 -420 113 -595 22 -54 39 -100 36 -102 -12 -12 -57 10 -103 51 -63
57 -97 121 -173 331 -34 94 -86 220 -114 280 -79 165 -111 190 -362 285 -135
51 -135 49 -14 110 58 29 166 77 240 107 132 53 395 135 415 129 6 -2 9 -41 7
-97z m20733 -163 c57 -19 148 -58 204 -86 150 -75 197 -85 361 -74 181 12 340
10 425 -5 39 -7 171 -36 295 -66 136 -33 268 -59 335 -65 224 -21 522 -9 810
31 178 24 257 24 375 -2 52 -12 117 -23 143 -24 60 -3 72 -15 70 -68 -2 -61
-61 -352 -82 -407 -44 -117 -120 -185 -266 -239 -124 -45 -191 -78 -214 -102
-25 -27 -26 -63 -6 -182 9 -49 13 -97 10 -107 -12 -36 -120 -137 -180 -167
-65 -33 -156 -57 -195 -52 -16 3 -31 16 -43 39 -20 38 -88 86 -202 143 -99 50
-147 68 -338 126 -186 57 -252 82 -477 181 -264 115 -463 170 -750 207 -110
14 -220 17 -600 18 -256 0 -499 -3 -541 -7 -48 -4 -129 -24 -215 -52 -77 -25
-204 -61 -284 -80 -179 -43 -492 -108 -497 -103 -4 5 527 382 717 508 80 53
244 162 365 242 121 79 299 202 395 272 96 71 186 134 200 142 38 20 74 16
185 -21z m-13923 -195 c49 -165 156 -473 227 -649 84 -210 193 -404 329 -585
127 -168 246 -274 433 -386 48 -28 93 -59 100 -68 24 -28 14 -85 -30 -183 -24
-52 -74 -175 -112 -272 -42 -110 -84 -201 -110 -240 -24 -35 -102 -124 -174
-198 -72 -74 -150 -159 -173 -189 -102 -128 -218 -359 -267 -528 -14 -47 -48
-224 -76 -392 -48 -296 -94 -540 -104 -549 -8 -8 -66 93 -80 142 -8 27 -15 68
-15 92 0 71 -45 224 -105 354 -31 69 -89 208 -130 310 -40 102 -111 275 -158
385 -47 110 -104 255 -127 323 l-42 123 161 482 c89 265 165 506 171 536 5 29
10 155 10 280 0 392 41 728 135 1101 37 148 74 270 83 270 4 0 28 -71 54 -159z
m16894 -1013 c-3 -150 -16 -1897 -28 -3882 -18 -2940 -25 -3609 -35 -3613 -7
-3 -68 14 -136 37 -119 41 -124 42 -212 36 -49 -4 -121 -14 -158 -22 -62 -14
-70 -14 -92 0 -14 9 -34 35 -46 58 -31 61 -105 135 -154 153 -23 9 -69 22
-101 28 l-59 12 -3 90 c-5 147 98 6528 106 6554 6 19 22 28 90 47 169 49 307
138 393 254 33 44 40 60 35 85 -27 161 -30 194 -16 210 20 24 66 46 103 49 44
4 179 75 247 130 30 25 59 45 63 45 5 1 6 -122 3 -271z m-30061 216 c90 -24
200 -86 298 -168 96 -81 191 -135 277 -160 30 -8 127 -24 216 -35 224 -28 678
-145 691 -177 7 -18 -58 -239 -116 -398 -74 -202 -84 -256 -79 -404 4 -112 9
-140 40 -232 20 -58 35 -106 34 -106 -5 -6 -338 392 -566 676 -346 431 -609
679 -983 928 -126 83 -130 87 -101 94 46 11 223 0 289 -18z m-371 -111 c180
-132 432 -371 600 -568 125 -147 231 -282 451 -575 92 -124 235 -309 317 -411
81 -103 148 -189 148 -192 0 -10 -171 32 -258 63 -184 66 -233 79 -332 90 -56
5 -106 7 -112 4 -5 -3 -102 0 -214 7 -166 10 -225 10 -306 0 -55 -7 -103 -10
-106 -7 -3 4 -4 57 -1 119 2 61 4 193 4 292 -1 169 -3 185 -28 262 -18 52 -61
137 -121 236 -125 206 -156 305 -156 492 0 138 20 225 52 225 6 0 33 -17 62
-37z m27056 -159 c250 -2 502 -8 560 -14 247 -25 478 -76 748 -166 205 -69
303 -84 547 -84 218 0 274 -10 402 -70 45 -21 83 -41 83 -43 0 -3 -12 -31 -27
-63 -31 -66 -33 -104 -18 -365 12 -217 -18 -376 -103 -544 -86 -173 -174 -266
-509 -543 -120 -99 -253 -210 -296 -246 -43 -36 -85 -66 -94 -66 -8 0 -56 31
-107 69 -258 196 -534 328 -878 420 -289 77 -461 94 -697 67 -165 -18 -389
-21 -529 -5 -53 6 -384 57 -734 115 l-637 104 -193 0 c-240 0 -432 -14 -557
-41 -88 -19 -408 -126 -660 -220 -111 -42 -126 -45 -115 -28 10 16 440 373
699 580 381 304 850 659 1235 934 l124 89 146 8 c167 8 522 33 690 49 97 9
211 28 400 69 19 4 42 5 50 3 8 -3 220 -7 470 -9z m-24990 -338 c41 -9 108
-25 149 -36 91 -25 214 -26 308 -4 98 23 200 15 284 -23 123 -56 419 -268 559
-400 97 -91 98 -94 104 -418 7 -357 24 -498 115 -935 17 -80 35 -183 41 -230
14 -118 13 -440 -1 -440 -6 0 -89 58 -183 129 -262 196 -504 363 -805 553
-303 190 -483 319 -549 392 -60 65 -97 151 -122 281 -11 61 -51 225 -87 365
-63 242 -66 261 -66 365 1 124 28 235 84 348 35 69 45 78 74 72 11 -2 54 -11
95 -19z m10867 -393 c-361 -717 -481 -1163 -481 -1788 0 -366 29 -611 94 -801
26 -75 25 -117 -4 -222 -14 -48 -47 -175 -74 -282 -64 -253 -83 -291 -199
-406 -107 -106 -160 -184 -204 -298 -44 -115 -76 -175 -83 -156 -3 8 -37 130
-75 270 -90 328 -199 686 -312 1020 -49 146 -89 274 -89 285 0 10 18 49 40 86
22 38 80 162 129 277 95 223 146 328 254 513 48 82 105 208 198 440 144 361
210 498 303 639 86 128 170 225 306 350 62 58 152 142 199 187 47 45 87 80 89
78 2 -2 -39 -88 -91 -192z m-9251 -267 c172 -127 335 -203 552 -257 192 -48
220 -65 358 -224 44 -49 96 -105 118 -125 148 -135 317 -201 466 -184 54 6 59
5 73 -17 19 -29 59 -206 88 -388 18 -115 20 -146 11 -210 -20 -138 -188 -744
-262 -946 -127 -344 -162 -585 -112 -780 11 -44 18 -82 16 -85 -8 -8 -500 495
-646 660 -255 290 -316 367 -324 413 -4 23 -6 132 -4 242 6 348 6 344 -45 510
-26 81 -65 189 -87 239 -22 50 -52 118 -66 151 -15 37 -51 193 -93 400 -37
187 -84 409 -103 494 -37 161 -39 171 -31 171 3 0 44 -29 91 -64z m-3131 -581
c77 -13 194 -29 260 -35 187 -18 314 -46 522 -115 105 -36 246 -75 312 -89
119 -23 120 -24 203 -88 156 -121 323 -236 653 -448 345 -222 504 -336 718
-515 120 -100 150 -133 110 -121 -39 12 -215 36 -343 47 -142 12 -185 10 -525
-21 -233 -22 -489 -26 -645 -10 -108 12 -229 35 -507 99 -254 58 -328 66 -474
52 -143 -13 -263 -38 -386 -80 -117 -39 -118 -39 -118 117 0 107 2 122 29 182
46 104 45 136 -3 217 -23 37 -49 93 -58 123 -15 51 -15 60 2 135 34 154 40
212 28 281 -12 70 -57 174 -97 227 -28 37 -33 62 -13 71 21 10 187 -5 332 -29z
m24195 -120 c58 -9 155 -27 215 -41 61 -14 232 -52 380 -84 149 -33 347 -78
440 -100 308 -71 336 -75 595 -74 182 1 254 5 320 18 165 34 226 32 567 -18
430 -64 566 -102 808 -224 155 -79 97 -83 -111 -8 -156 56 -304 55 -452 -5
-174 -69 -508 -277 -629 -392 -146 -139 -214 -256 -263 -455 -53 -213 -115
-342 -238 -496 -97 -120 -332 -374 -367 -396 -64 -40 -143 -54 -290 -55 -197
0 -215 11 -301 175 -48 92 -128 175 -215 223 -125 70 -434 195 -634 257 -110
34 -263 87 -340 117 -271 108 -375 135 -595 154 -242 21 -606 -6 -892 -67
-152 -32 -591 -158 -1042 -300 -11 -4 12 22 50 57 246 225 484 477 629 664
214 277 520 647 621 751 44 46 9 34 529 174 288 77 492 122 635 140 106 13
455 4 580 -15z m-19346 -147 c13 -18 52 -78 86 -133 96 -155 140 -193 305
-260 108 -45 172 -90 218 -153 46 -63 64 -101 132 -272 98 -249 135 -306 298
-473 53 -53 108 -118 123 -142 l26 -45 -26 -168 c-58 -377 -86 -767 -68 -940
14 -120 46 -265 97 -426 51 -161 98 -416 76 -416 -6 0 -71 50 -144 111 -172
145 -359 285 -527 395 -134 87 -209 127 -602 318 -218 106 -238 123 -246 206
-5 57 18 199 58 356 27 104 57 184 165 447 68 165 86 256 95 502 5 121 9 291
10 378 0 147 -3 170 -39 340 -35 161 -81 390 -81 403 0 14 22 0 44 -28z m7454
-178 c16 -47 50 -162 76 -256 54 -204 97 -319 175 -474 100 -199 130 -242 189
-270 113 -55 157 -137 169 -315 l6 -90 -76 -110 c-298 -432 -436 -645 -466
-723 -37 -97 -117 -416 -157 -627 -15 -82 -31 -154 -34 -158 -16 -19 -321 427
-357 521 l-16 43 76 227 c172 511 229 820 247 1337 16 460 33 636 86 899 13
65 24 122 24 125 1 14 30 -50 58 -129z m-9922 -1094 c154 -30 351 -63 439 -72
88 -9 176 -18 195 -20 51 -7 198 -163 393 -416 138 -180 375 -474 504 -626
l43 -50 -88 -7 c-146 -11 -279 -43 -427 -101 -129 -51 -211 -92 -475 -232
-107 -57 -243 -106 -340 -122 -36 -5 -198 -17 -360 -25 -309 -15 -417 -29
-562 -69 -245 -68 -500 -206 -634 -343 -34 -35 -66 -63 -71 -63 -6 0 -84 52
-174 117 -420 298 -659 509 -786 695 l-52 75 -19 142 -19 141 -56 58 c-69 73
-147 192 -147 226 0 14 15 50 34 79 45 71 85 166 102 246 15 74 18 233 4 301
-7 35 -6 47 6 56 26 21 168 39 294 38 114 -1 143 -5 335 -52 304 -74 373 -85
515 -85 151 0 235 16 435 83 130 43 257 71 380 84 113 11 259 -5 531 -58z
m20907 -316 c91 -8 145 -19 240 -49 150 -49 243 -72 418 -105 137 -26 492
-125 614 -171 84 -31 138 -69 209 -146 53 -57 96 -124 85 -132 -2 -2 -39 -27
-82 -56 -168 -113 -321 -258 -459 -435 -91 -118 -129 -188 -178 -331 -99 -287
-279 -662 -359 -748 -32 -35 -195 -157 -209 -157 -6 0 -46 17 -90 39 l-80 38
-284 7 c-322 8 -379 15 -498 58 -47 17 -137 46 -200 65 -63 19 -160 48 -215
65 -55 16 -153 55 -219 85 -286 132 -427 159 -890 173 -182 5 -349 14 -371 19
-236 58 -685 125 -1015 151 -140 11 -313 30 -385 41 -155 24 -289 25 -405 5
-99 -18 -134 -20 -125 -6 9 14 421 289 627 418 98 61 287 175 420 253 134 78
331 197 438 264 417 259 372 242 930 350 190 37 446 92 570 122 368 89 518
122 655 142 292 45 625 60 858 41z m-16932 -497 c180 -243 378 -481 514 -619
54 -55 89 -80 150 -109 173 -82 251 -157 336 -326 27 -54 69 -123 94 -154 26
-31 45 -64 43 -73 -4 -19 -81 -44 -291 -97 -160 -40 -203 -58 -273 -111 -57
-44 -99 -90 -137 -151 -35 -55 -58 -67 -115 -58 -147 22 -391 171 -428 262 -8
19 -14 69 -14 120 0 105 -21 262 -52 393 -32 132 -32 382 0 550 26 137 52 345
52 415 0 46 8 95 16 95 1 0 49 -62 105 -137z m-2068 -654 c40 -33 101 -78 137
-99 113 -67 412 -187 635 -255 302 -92 439 -149 600 -252 106 -68 245 -175
245 -189 0 -20 -176 -66 -395 -104 -253 -44 -283 -53 -865 -279 -201 -78 -399
-161 -440 -184 -109 -61 -249 -204 -320 -326 -30 -51 -60 -95 -66 -98 -7 -2
-54 11 -106 31 -299 112 -608 105 -912 -21 -93 -38 -110 -32 -288 110 -151
121 -179 146 -295 270 -60 65 -180 152 -239 174 -78 30 -292 95 -399 123 -155
39 -267 94 -349 170 -74 69 -121 134 -111 151 5 6 53 33 109 59 289 135 524
172 1099 170 343 -2 372 2 488 61 57 28 147 108 210 184 55 67 164 157 228
190 102 51 289 113 426 140 156 31 160 32 363 33 l173 2 72 -61z m7687 -355
l175 -299 -1 -125 c-3 -260 -86 -520 -243 -763 -62 -96 -96 -135 -107 -124 -4
4 -8 149 -9 324 -1 225 -7 356 -18 448 -25 191 -32 453 -18 648 13 178 17 200
35 194 6 -2 90 -138 186 -303z m-386 44 c-3 -79 -7 -149 -9 -155 -7 -23 15
-347 30 -438 8 -50 10 -94 6 -98 -11 -11 -14 -1 -40 123 -32 153 -61 366 -68
503 l-6 128 38 39 c22 22 43 40 47 40 5 0 6 -64 2 -142z m-2741 102 c75 -28
124 -85 141 -165 6 -27 -10 -55 -133 -246 -158 -244 -341 -548 -456 -754 -99
-179 -139 -234 -271 -375 -59 -63 -138 -156 -176 -206 -84 -113 -204 -317
-248 -424 -19 -44 -39 -80 -46 -80 -6 0 -72 62 -146 138 -260 268 -418 512
-630 977 -86 189 -81 225 51 355 106 103 270 158 432 145 152 -13 339 37 475
127 108 72 287 231 372 330 142 165 213 197 434 198 123 0 156 -3 201 -20z
m1019 -114 c122 -31 214 -64 229 -83 12 -13 1 -195 -32 -548 -38 -401 -213
-897 -445 -1260 -39 -60 -107 -166 -151 -235 -44 -69 -113 -183 -153 -255
-107 -193 -162 -268 -290 -396 -161 -161 -316 -262 -532 -345 -48 -19 -103
-43 -120 -54 -43 -26 -80 -25 -105 3 -44 48 -202 278 -262 382 -68 115 -154
292 -188 385 -23 62 -19 87 21 113 44 29 205 218 277 325 95 142 156 272 234
502 86 249 212 565 281 700 98 193 340 544 404 586 21 14 58 28 82 31 26 3 99
33 189 78 80 41 170 81 200 90 77 21 236 13 361 -19z m437 -211 c184 -193 292
-381 365 -633 53 -183 116 -505 171 -862 31 -202 53 -290 106 -421 55 -136 54
-174 -5 -395 -56 -214 -94 -314 -203 -529 -97 -194 -100 -198 -203 -360 -85
-131 -132 -221 -205 -390 -155 -360 -419 -779 -607 -967 -100 -100 -336 -247
-439 -273 l-26 -6 -72 253 c-90 312 -139 462 -195 588 -114 256 -298 541 -505
778 -45 52 -79 98 -76 102 3 5 31 12 63 15 104 12 223 45 306 84 165 78 241
154 419 421 165 247 305 427 513 661 133 149 170 201 261 359 158 275 212 428
248 703 26 204 17 334 -37 505 -33 108 -38 190 -18 344 12 101 17 118 35 118
7 0 54 -43 104 -95z m8789 -89 c235 -47 528 -99 652 -116 375 -51 556 -80 750
-117 273 -52 304 -54 545 -47 369 11 585 -21 970 -140 61 -19 182 -50 270 -70
88 -20 209 -49 268 -65 165 -45 240 -53 517 -56 228 -1 261 -4 310 -22 75 -27
76 -47 8 -105 -127 -108 -208 -146 -426 -199 -90 -22 -178 -47 -195 -55 -82
-43 -174 -154 -263 -319 -62 -115 -99 -155 -209 -228 -145 -96 -219 -123 -366
-137 -48 -5 -102 -15 -121 -24 -18 -9 -84 -63 -146 -121 -61 -58 -118 -105
-125 -105 -7 0 -33 21 -57 46 -81 83 -116 104 -178 104 -50 0 -58 -3 -92 -38
-26 -26 -40 -50 -45 -80 -4 -23 -11 -42 -17 -42 -5 0 -60 20 -121 44 -62 24
-163 60 -226 81 -65 21 -188 76 -285 125 -201 103 -283 138 -506 215 -463 158
-972 289 -1428 366 -210 35 -946 119 -1048 119 -93 0 -191 -21 -305 -65 -114
-44 -134 -45 -94 -6 57 56 1500 1141 1518 1141 9 0 210 -38 445 -84z m-12794
-424 c66 -43 124 -85 129 -94 13 -20 -4 -81 -36 -129 -23 -34 -24 -34 -107
-37 -89 -3 -208 10 -300 33 -104 27 -198 35 -428 36 -127 1 -235 5 -242 9 -19
12 38 28 120 35 126 10 381 55 460 81 80 27 193 89 224 123 11 12 29 21 40 20
12 0 75 -35 140 -77z m8002 -42 c97 -48 182 -125 226 -206 14 -27 38 -96 53
-153 42 -167 43 -168 165 -216 137 -54 176 -80 237 -157 145 -182 269 -441
313 -652 15 -73 14 -74 -112 -131 -276 -124 -584 -332 -816 -550 -55 -52 -103
-95 -106 -95 -3 0 -6 71 -6 158 0 192 -15 407 -34 499 -8 37 -31 127 -50 198
-67 243 -136 595 -166 850 -12 102 -42 198 -85 272 -14 23 -25 52 -25 66 0 39
63 112 122 142 47 23 62 26 126 22 60 -3 87 -11 158 -47z m-435 -242 c28 -73
33 -104 46 -258 7 -96 23 -217 33 -269 26 -121 25 -198 -1 -308 -26 -109 -22
-175 21 -333 62 -229 115 -492 145 -723 18 -144 13 -160 -71 -235 -185 -165
-423 -447 -688 -816 -159 -222 -202 -276 -219 -274 -14 2 -29 25 -54 88 -50
125 -62 188 -73 392 -11 217 -14 236 -76 443 l-48 160 2 170 c2 112 -3 206
-13 275 -22 155 -30 409 -16 508 32 216 143 503 298 770 114 198 191 262 403
337 81 29 141 58 184 89 36 26 68 51 71 56 13 22 25 7 56 -72z m-8361 -81
c313 -81 430 -98 674 -102 103 -2 192 -7 196 -12 5 -4 29 -49 54 -100 60 -119
133 -219 259 -357 110 -119 214 -242 293 -346 77 -101 204 -293 204 -307 0
-17 -10 -17 -125 7 -104 21 -281 44 -430 55 -123 10 -222 40 -437 136 -285
126 -337 141 -498 147 -112 3 -166 -1 -320 -24 -213 -32 -418 -37 -542 -15
-43 8 -203 55 -355 106 l-278 92 1 30 c2 42 88 254 137 338 75 129 172 213
345 299 111 56 243 101 332 115 127 19 216 8 490 -62z m-1100 -88 c0 -6 -17
-32 -39 -58 -92 -110 -166 -245 -226 -413 -19 -54 -39 -94 -48 -96 -19 -4
-105 92 -128 144 -25 56 -17 87 43 168 79 106 189 190 316 242 64 26 82 29 82
13z m12970 -421 c158 -70 144 -67 775 -144 459 -55 633 -82 945 -144 436 -88
722 -164 1211 -325 324 -107 425 -131 709 -170 69 -10 131 -22 138 -27 28 -23
5 -288 -38 -429 -23 -78 -75 -143 -146 -181 -27 -14 -103 -45 -169 -68 -257
-90 -442 -186 -695 -358 -170 -116 -229 -142 -372 -167 -67 -12 -135 -34 -243
-80 -242 -102 -523 -198 -722 -245 l-52 -12 -121 56 c-67 31 -194 80 -283 110
-191 62 -181 58 -552 271 -337 194 -454 252 -614 305 -154 52 -286 78 -456 91
-213 17 -199 11 -349 164 -129 131 -148 146 -370 284 -73 46 -168 133 -159
146 5 6 37 33 73 60 99 75 210 175 365 324 198 193 487 447 629 555 l50 38
170 -4 171 -3 105 -47z m-13103 -479 c85 -52 296 -158 384 -193 129 -50 190
-60 384 -60 164 0 190 2 295 28 246 60 454 45 709 -53 264 -101 384 -129 602
-138 172 -7 291 6 463 49 65 16 128 27 140 24 14 -4 41 -42 81 -113 78 -140
238 -379 353 -529 122 -160 225 -278 402 -464 180 -189 260 -282 253 -294 -9
-14 -210 1 -299 23 -133 33 -238 42 -399 35 -190 -8 -284 3 -545 66 -415 99
-478 106 -1045 120 -220 5 -433 14 -474 20 -297 45 -617 230 -750 434 -22 34
-62 116 -90 183 -59 148 -104 213 -261 376 -160 168 -225 270 -281 442 -20 61
-19 85 1 85 5 0 40 -19 77 -41z m8457 -341 c3 -101 15 -245 26 -320 21 -145
20 -183 -15 -334 -25 -107 -27 -203 -11 -399 43 -502 80 -656 212 -875 30 -49
54 -99 54 -111 0 -12 -56 -114 -124 -228 -128 -213 -262 -453 -339 -608 -25
-49 -52 -95 -61 -102 -14 -12 -16 -7 -16 48 0 83 -11 124 -92 341 -39 102
-101 275 -138 385 -38 110 -96 266 -130 345 -98 230 -95 217 -81 337 17 151
51 253 141 431 61 121 98 213 160 402 94 282 144 409 229 578 71 141 158 292
170 292 4 0 11 -82 15 -182z m-1656 20 c16 -20 59 -167 78 -264 12 -65 17
-136 16 -264 -2 -270 -27 -491 -83 -732 -52 -225 -62 -315 -59 -523 7 -427 8
-403 -39 -590 -64 -255 -141 -437 -256 -610 -57 -85 -426 -539 -501 -615 -24
-25 -70 -61 -102 -79 -109 -64 -166 -106 -308 -228 -78 -68 -146 -123 -151
-123 -10 0 -22 33 -118 313 -41 119 -95 288 -119 375 -65 227 -147 567 -141
584 6 16 108 57 205 83 90 25 200 76 274 129 120 86 361 354 531 591 171 239
374 633 445 863 11 36 27 111 36 166 19 132 37 193 100 356 37 95 59 171 74
255 27 150 44 219 70 278 22 49 31 55 48 35z m-7980 -344 c45 -3 80 -9 77 -14
-3 -4 -69 -45 -147 -91 -79 -45 -177 -105 -218 -132 -110 -73 -344 -313 -470
-482 -57 -77 -109 -143 -114 -147 -6 -4 -22 -4 -36 -1 -41 8 -226 -14 -315
-37 -107 -29 -196 -71 -480 -232 -380 -214 -805 -449 -860 -474 -74 -35 -148
-32 -278 11 -253 84 -428 25 -777 -260 -51 -41 -96 -75 -101 -75 -5 0 -40 15
-77 34 -101 51 -163 66 -271 66 -162 0 -270 -33 -434 -129 -120 -71 -240 -162
-335 -254 -117 -115 -125 -93 -20 56 158 222 209 279 310 348 121 83 339 289
617 585 384 408 458 471 684 579 133 64 203 83 482 129 144 24 276 53 420 95
263 75 480 129 705 176 198 41 392 89 590 145 365 103 652 131 1048 104z m729
-74 c171 -33 322 -72 513 -129 74 -23 172 -47 218 -53 l84 -12 26 -61 c90
-210 223 -452 369 -674 52 -79 91 -146 88 -150 -4 -3 -84 -6 -178 -5 -207 0
-272 12 -517 94 -269 91 -370 97 -620 40 -261 -61 -298 -65 -560 -65 -274 1
-368 13 -596 79 -135 39 -306 106 -311 121 -9 29 298 367 411 452 34 25 122
76 196 113 74 37 216 110 315 162 172 90 216 111 260 122 37 9 153 -4 302 -34z
m12909 -485 c299 -79 458 -150 659 -294 266 -191 485 -284 755 -321 174 -24
248 -39 341 -71 81 -27 107 -50 94 -82 -8 -20 -427 -427 -439 -427 -2 0 -69
15 -148 34 -361 87 -458 96 -1014 96 -231 0 -423 2 -426 5 -3 3 0 31 7 63 7
31 16 111 20 177 3 66 18 179 32 250 32 165 33 316 2 455 -30 138 -32 150 -23
150 5 0 68 -16 140 -35z m-17317 -102 c0 -5 -34 -35 -76 -68 -110 -87 -351
-322 -461 -450 -102 -119 -213 -262 -282 -365 -24 -36 -100 -123 -170 -195
-130 -134 -206 -239 -407 -560 -102 -162 -166 -241 -274 -331 -178 -152 -268
-212 -379 -255 -219 -86 -332 -167 -446 -323 -17 -24 -38 -32 -160 -62 -76
-19 -203 -46 -281 -59 -281 -49 -421 -121 -615 -316 -120 -121 -202 -185 -300
-235 -92 -46 -226 -84 -325 -91 -78 -6 -83 -5 -83 14 0 25 142 260 227 377 37
50 109 149 161 220 52 71 175 258 272 415 97 157 205 331 240 386 89 140 139
251 209 465 90 275 119 321 429 673 221 252 339 351 515 432 197 91 513 145
1350 230 272 28 751 86 850 104 4 0 7 -2 6 -6z m5675 -141 c93 -74 146 -108
243 -156 195 -97 329 -128 653 -151 124 -8 236 -17 250 -20 14 -3 104 -9 200
-15 96 -5 207 -17 245 -25 222 -50 205 -49 730 -50 379 -2 533 -6 637 -18 146
-16 149 -16 247 15 72 23 131 20 162 -8 24 -21 116 -182 160 -280 109 -242
194 -525 224 -750 l6 -51 -190 -86 c-226 -104 -234 -104 -374 -47 -337 137
-610 189 -1057 199 -355 8 -349 7 -510 146 -284 246 -439 356 -935 659 -159
98 -320 198 -357 222 -122 80 -238 201 -357 373 -74 108 -70 116 23 43z
m-8264 -206 c0 -2 -20 -16 -45 -31 -58 -33 -345 -318 -455 -450 -169 -203
-239 -336 -291 -552 -53 -223 -82 -296 -206 -514 -45 -80 -138 -256 -205 -390
-127 -251 -175 -330 -309 -506 -135 -177 -203 -308 -255 -494 -30 -105 -50
-133 -150 -205 -80 -57 -160 -94 -207 -94 -32 0 -41 5 -55 31 -82 149 -164
189 -345 169 -113 -13 -250 -58 -341 -112 -86 -51 -133 -54 -176 -13 -16 16
-91 115 -166 222 -145 206 -175 239 -229 249 -93 17 -514 -150 -730 -289 -38
-25 -71 -44 -72 -43 -2 2 19 54 46 117 122 286 173 448 236 755 19 94 44 202
56 240 39 130 159 328 300 494 39 47 139 172 221 277 169 217 296 345 477 481
113 85 601 386 677 418 42 17 268 39 829 79 577 41 910 79 1227 139 123 24
168 30 168 22z m7381 -180 c57 -8 172 -22 254 -30 83 -9 200 -25 260 -36 61
-12 187 -25 280 -30 206 -11 330 -39 444 -101 42 -22 155 -96 251 -164 96 -67
234 -160 305 -205 342 -217 624 -449 680 -560 19 -37 36 -53 92 -83 82 -45
120 -73 111 -82 -3 -3 -74 5 -158 19 -244 41 -408 51 -648 37 -349 -20 -658
-59 -1027 -131 l-200 -40 -150 95 c-83 52 -214 138 -291 191 -409 282 -560
374 -827 505 -211 103 -303 127 -527 139 -135 7 -178 13 -235 33 -239 84 -975
407 -975 428 0 16 76 22 149 10 121 -18 375 -80 511 -123 195 -62 280 -78 440
-85 182 -7 274 8 477 78 248 85 353 118 422 133 87 19 233 19 362 2z m-2411
-150 c58 -39 161 -116 230 -171 222 -177 398 -283 602 -361 142 -55 199 -71
414 -113 251 -50 358 -92 612 -239 308 -180 551 -307 792 -416 l85 -38 -186
-49 c-560 -146 -1062 -355 -1766 -735 -106 -57 -199 -104 -209 -104 -9 0 -47
20 -84 45 -38 25 -93 56 -122 69 -66 29 -285 97 -538 166 -303 83 -417 126
-680 256 -224 111 -315 161 -590 329 -148 91 -253 135 -560 234 -364 118 -523
181 -613 241 -72 49 -160 130 -140 130 5 0 69 -25 141 -55 152 -64 188 -68
265 -29 94 48 140 85 267 214 197 200 252 223 477 195 214 -27 269 -21 448 54
199 83 616 269 840 374 99 46 187 82 195 79 8 -3 62 -37 120 -76z m-7900 -79
c0 -2 -35 -25 -77 -52 -112 -70 -286 -202 -376 -285 -176 -163 -548 -613 -661
-798 -81 -134 -125 -278 -156 -517 -41 -310 -114 -651 -181 -843 -54 -153
-157 -330 -248 -426 -65 -68 -378 -301 -448 -333 -47 -22 -73 -27 -136 -28
l-78 0 -237 120 c-130 66 -275 146 -322 177 -128 84 -250 221 -356 400 -78
132 -108 214 -102 280 5 56 -3 42 303 508 70 106 257 298 410 422 174 140 240
222 355 438 130 243 271 439 366 506 26 19 77 43 112 54 35 11 378 83 761 160
383 77 777 158 876 179 196 43 195 42 195 38z m18170 -372 c159 -647 240
-1048 240 -1195 0 -31 -29 -98 -130 -300 -74 -147 -136 -260 -144 -260 -10 0
-15 32 -20 133 -14 274 -54 479 -147 751 -61 179 -61 179 -57 275 4 80 12 120
50 236 31 94 48 166 53 220 10 123 45 427 52 455 5 20 11 8 35 -65 15 -49 46
-162 68 -250z m5060 68 c19 -7 -25 -23 -210 -74 -250 -70 -372 -110 -467 -154
-172 -81 -357 -215 -486 -355 l-64 -70 -164 -61 c-302 -113 -568 -233 -829
-374 -87 -47 -160 -85 -164 -85 -3 0 -6 5 -6 11 0 12 465 757 500 802 39 50
432 193 731 267 185 45 424 87 559 98 105 8 576 4 600 -5z m606 -54 c93 -16
149 -36 289 -102 l130 -62 335 1 c224 1 396 6 520 17 101 10 208 17 236 17 87
0 169 -33 302 -119 174 -114 313 -171 516 -210 54 -11 100 -21 103 -24 7 -7
-100 -84 -164 -118 -30 -16 -92 -40 -136 -53 -155 -47 -563 -154 -748 -196
l-185 -43 -111 51 c-320 147 -614 231 -993 286 -525 75 -971 92 -1354 50 -76
-8 -141 -13 -144 -10 -14 15 46 49 332 190 590 291 838 367 1072 325z m-26152
-161 c-10 -13 -35 -41 -54 -63 -75 -84 -200 -277 -455 -698 -76 -124 -131
-197 -245 -322 -55 -60 -142 -176 -217 -287 -69 -104 -128 -188 -132 -188 -3
0 -6 48 -6 108 0 88 -4 115 -22 153 -47 103 -163 182 -268 183 -57 1 -68 -3
-176 -65 -152 -89 -230 -121 -294 -121 -87 -1 -133 34 -195 149 -40 74 -97
125 -158 143 -124 35 -299 37 -427 5 -100 -25 -225 -31 -262 -12 -78 41 -161
175 -170 275 -7 81 -1 85 140 100 278 29 470 70 962 207 289 80 1315 334 1535
380 168 35 387 73 429 74 l34 1 -19 -22z m19510 -12 c9 -36 43 -313 58 -471 8
-89 13 -282 13 -525 -1 -357 -2 -395 -24 -514 -40 -229 -415 -1465 -444 -1466
-7 -1 -132 28 -280 62 l-267 63 -21 64 c-21 61 -21 65 -5 92 10 16 14 35 10
42 -4 6 -44 68 -90 137 -150 229 -331 573 -319 610 3 9 22 24 43 34 20 10 89
48 152 85 63 37 175 101 249 142 183 101 268 181 395 373 135 204 241 406 324
616 73 184 172 536 172 611 0 33 11 69 20 69 4 0 11 -11 14 -24z m-12151 -197
c11 -7 55 -41 96 -76 109 -93 168 -125 362 -198 346 -131 459 -200 710 -440
119 -114 246 -218 334 -272 88 -54 558 -299 627 -326 90 -37 191 -61 398 -98
294 -51 670 -143 677 -164 2 -6 -84 -57 -189 -115 -657 -355 -871 -489 -1126
-703 l-83 -70 -177 36 c-97 20 -267 55 -377 79 -190 40 -208 42 -365 42 -123
0 -184 -4 -240 -18 -196 -46 -323 -67 -530 -86 -124 -11 -317 -29 -430 -40
-113 -11 -342 -25 -510 -30 -357 -11 -423 -17 -710 -70 -339 -62 -440 -78
-675 -105 -121 -14 -269 -37 -330 -51 -148 -34 -175 -38 -175 -28 0 5 19 81
41 169 39 148 42 171 44 310 2 153 9 200 47 315 43 134 136 290 215 361 21 19
87 68 146 108 149 101 195 146 290 278 135 190 229 259 437 323 58 17 130 45
159 62 129 72 592 389 901 616 229 169 363 228 433 191z m23331 -17 c8 -13 -5
-25 -79 -77 -38 -27 -119 -88 -180 -135 -202 -159 -337 -245 -645 -412 -96
-52 -264 -154 -373 -226 -204 -135 -506 -297 -539 -289 -9 3 -286 114 -614
248 l-597 244 89 12 c241 32 364 90 744 353 221 153 289 184 433 195 88 7 752
32 1052 40 254 7 467 21 586 40 106 16 117 17 123 7z m346 -97 c47 -24 126
-69 175 -101 251 -160 358 -213 755 -369 80 -31 160 -68 179 -82 39 -30 81
-114 81 -164 0 -33 -5 -39 -77 -90 -162 -114 -240 -155 -463 -244 -323 -128
-555 -254 -743 -401 -155 -122 -229 -165 -347 -205 -83 -27 -104 -31 -170 -26
-66 4 -105 16 -335 110 -512 207 -1077 455 -1072 470 2 6 32 20 68 32 35 12
105 42 154 67 135 68 320 148 505 218 302 114 490 217 695 380 108 86 271 246
363 355 41 50 82 93 91 97 22 9 43 2 141 -47z m-7752 -32 c-195 -198 -349
-475 -427 -768 -11 -39 -21 -47 -571 -405 -558 -363 -596 -387 -605 -379 -2 3
9 53 25 113 37 138 67 317 80 475 8 102 14 131 33 159 15 23 99 85 253 188
340 226 417 270 774 445 179 88 366 179 415 204 50 24 92 44 95 44 2 1 -30
-34 -72 -76z m-5981 -185 c5 -7 33 -110 62 -228 33 -138 96 -347 176 -585 140
-418 198 -605 190 -613 -3 -3 -40 -1 -83 6 -42 6 -180 27 -306 46 -126 20
-274 40 -330 46 -184 20 -323 70 -367 131 -14 19 -81 146 -149 282 -69 136
-147 278 -175 315 -33 43 -104 112 -207 197 -145 121 -377 322 -423 367 -20
20 -20 20 60 14 160 -13 275 -28 520 -69 374 -61 547 -56 790 24 49 17 113 41
140 54 57 27 88 31 102 13z m8393 -28 c558 -35 1045 -142 1430 -314 214 -96
269 -149 332 -319 l30 -82 3 -310 c2 -324 9 -412 50 -635 37 -203 45 -295 45
-515 0 -280 21 -457 81 -697 61 -244 117 -387 268 -683 108 -211 144 -312 167
-469 l7 -49 -29 7 c-52 13 -347 162 -439 223 -133 88 -220 161 -414 344 -369
350 -443 413 -631 540 -75 51 -95 84 -135 223 -66 231 -91 453 -75 667 8 94 7
163 0 233 -28 249 -156 622 -336 976 -81 161 -123 227 -204 326 -135 163 -450
374 -727 485 -46 18 -80 35 -77 38 17 17 435 24 654 11z m-1084 -134 c43 -13
120 -34 169 -46 50 -12 133 -44 185 -70 52 -26 151 -73 220 -105 174 -80 278
-150 391 -264 196 -198 382 -533 503 -910 56 -175 88 -324 121 -570 36 -269
96 -492 185 -684 7 -15 11 -30 7 -33 -14 -14 -137 65 -202 131 -118 119 -303
348 -490 605 -306 421 -377 513 -460 595 -90 90 -209 173 -335 235 -83 40 -87
41 -158 35 l-73 -6 -164 85 c-90 47 -233 126 -317 177 -280 168 -469 258 -720
344 -73 24 -134 49 -136 53 -3 9 277 147 433 212 189 80 549 209 650 233 48
11 117 5 191 -17z m-4431 -221 c19 -147 54 -294 105 -450 55 -167 82 -280 84
-345 1 -48 -7 -73 -66 -198 -70 -151 -195 -384 -227 -423 l-19 -24 -17 40
c-35 83 -87 243 -101 310 -20 94 -30 409 -15 501 6 39 28 113 50 165 57 137
108 288 142 418 29 112 37 136 45 129 2 -3 11 -58 19 -123z m8001 -408 l539
-223 23 -79 c57 -198 63 -331 31 -632 -33 -316 -16 -558 56 -769 58 -168 200
-435 463 -867 102 -168 128 -203 255 -340 164 -177 273 -303 415 -480 57 -70
155 -180 217 -244 63 -64 113 -119 111 -121 -10 -10 -150 -23 -301 -29 -357
-12 -701 55 -1020 199 -262 119 -277 124 -394 142 -138 21 -295 60 -327 81
-41 26 -55 60 -74 177 -31 197 -75 327 -155 468 -80 140 -98 198 -115 370 -6
58 -25 191 -41 295 -38 237 -47 388 -35 625 12 240 -2 431 -49 667 -47 239
-62 355 -75 562 -10 178 -24 259 -60 352 -22 60 -24 69 -12 69 5 0 251 -100
548 -223z m4449 184 c363 -65 854 -138 1195 -176 143 -16 170 -24 170 -51 0
-7 14 -30 32 -50 35 -39 25 -38 168 -22 43 5 177 -205 391 -617 97 -186 209
-364 310 -495 32 -41 174 -187 315 -324 152 -148 276 -277 304 -319 54 -76
186 -338 335 -662 144 -315 321 -634 420 -756 97 -120 205 -292 192 -306 -12
-11 -205 -33 -387 -42 -128 -7 -192 -15 -240 -30 -204 -65 -275 -47 -527 130
-204 145 -293 172 -565 173 -172 1 -189 3 -215 22 -39 29 -370 423 -382 454
-4 14 -16 50 -25 80 -18 65 -59 132 -117 195 -22 24 -39 49 -37 56 2 6 35 21
74 33 96 31 208 88 286 147 81 60 191 176 218 229 28 55 26 125 -5 184 -30 57
-30 61 -5 111 11 22 20 49 20 61 0 52 -96 128 -207 165 -56 18 -70 29 -114 82
-91 111 -178 161 -299 174 -99 10 -128 33 -185 150 -74 151 -127 198 -250 223
-33 7 -73 19 -88 27 -48 24 -273 379 -327 515 -58 144 -84 173 -260 291 -141
94 -236 175 -321 271 -95 109 -102 121 -68 113 13 -3 101 -19 194 -36z m-242
-99 c127 -108 243 -199 369 -286 112 -77 179 -147 210 -219 44 -100 166 -343
207 -412 22 -38 41 -80 41 -92 0 -32 -29 -46 -158 -82 -62 -17 -167 -51 -232
-76 -130 -48 -196 -67 -318 -90 -130 -25 -353 -55 -410 -55 -63 0 -104 -19
-120 -55 -9 -20 -18 -26 -33 -22 -39 10 -1399 552 -1399 557 0 3 42 16 93 29
116 29 251 85 342 141 214 131 308 175 517 239 76 23 174 57 219 77 173 74
351 201 485 349 43 47 79 85 81 85 2 0 50 -39 106 -88z m-9151 -106 c95 -19
263 -50 373 -70 249 -44 352 -73 475 -136 110 -57 236 -140 233 -155 -3 -16
-41 -17 -86 -2 -35 11 -96 12 -367 5 -548 -14 -540 -13 -990 -133 -96 -26
-200 -53 -230 -61 -30 -8 -131 -19 -225 -24 -93 -6 -257 -22 -364 -35 -107
-14 -196 -23 -198 -21 -9 8 853 524 1015 607 135 69 139 70 364 25z m-1568
-23 c-8 -27 -46 -154 -85 -283 -103 -345 -108 -358 -134 -400 -25 -39 -46 -59
-305 -282 -85 -73 -256 -232 -380 -353 -240 -234 -286 -272 -343 -282 -41 -6
-147 5 -147 16 0 3 25 24 55 46 55 40 259 262 586 640 95 110 206 238 246 283
137 155 381 471 478 620 36 55 48 53 29 -5z m13606 -78 c404 -36 742 -68 750
-70 8 -3 43 -60 77 -128 76 -150 172 -311 244 -409 30 -40 144 -180 254 -312
110 -131 229 -274 265 -317 36 -43 118 -168 183 -281 112 -192 542 -819 798
-1164 176 -236 213 -327 258 -641 23 -161 55 -518 48 -537 -6 -16 -142 -51
-262 -67 -130 -17 -412 -6 -540 21 -135 29 -203 66 -270 150 -102 127 -184
184 -325 227 -100 31 -118 45 -167 132 -20 37 -93 154 -163 261 -339 521 -615
1024 -770 1405 -150 367 -202 459 -346 600 -65 64 -122 131 -157 185 -101 159
-283 465 -337 565 -76 143 -139 234 -236 336 -81 85 -93 109 -56 109 9 0 347
-29 752 -65z m1190 -104 c113 -12 304 -28 425 -36 178 -13 590 -56 868 -91 47
-6 48 -7 210 -192 90 -103 216 -242 280 -310 153 -162 144 -145 362 -638 167
-376 321 -602 595 -874 161 -159 231 -241 312 -364 96 -145 209 -403 195 -441
-5 -11 -23 -15 -74 -15 -149 0 -361 -40 -457 -85 -87 -41 -141 -90 -206 -185
-71 -103 -112 -142 -184 -175 -186 -85 -227 -107 -281 -148 -33 -25 -89 -75
-124 -112 -38 -41 -67 -63 -72 -58 -16 16 -49 212 -70 423 -39 380 -88 512
-312 825 -304 426 -536 832 -741 1298 -43 97 -92 199 -109 225 -40 63 -209
250 -465 514 -202 209 -391 429 -392 456 0 8 7 11 18 8 9 -3 109 -14 222 -25z
m-6724 -346 c453 -167 806 -303 817 -314 24 -23 24 -39 8 -202 -34 -341 56
-670 279 -1020 301 -472 585 -777 1040 -1112 74 -55 151 -112 170 -126 l35
-26 -75 -7 c-155 -15 -252 -59 -379 -172 -101 -90 -159 -122 -253 -142 -86
-18 -157 -12 -272 22 -44 13 -102 24 -130 24 -28 0 -169 -23 -314 -50 l-262
-51 -45 37 c-45 39 -141 143 -187 204 -14 19 -58 98 -97 175 -88 175 -141 255
-282 425 -191 230 -228 283 -428 633 -255 446 -313 574 -347 767 -14 82 -15
132 -8 370 16 481 8 567 -62 756 -39 105 -39 104 -19 104 8 0 373 -133 811
-295z m8416 180 c382 -56 787 -143 1643 -355 501 -124 660 -170 1040 -303 149
-52 362 -124 475 -161 225 -72 270 -97 270 -147 0 -27 -6 -33 -55 -55 -30 -14
-106 -36 -169 -49 -128 -27 -140 -31 -177 -72 -46 -49 -62 -92 -69 -193 -4
-52 -13 -107 -20 -122 -7 -15 -46 -51 -87 -80 -104 -73 -124 -110 -133 -244
-9 -144 -39 -182 -166 -211 -162 -37 -218 -91 -293 -284 -29 -74 -69 -164 -88
-201 -45 -85 -136 -185 -201 -221 -107 -58 -302 -87 -334 -49 -8 9 -36 71 -63
137 -149 371 -343 736 -606 1142 -157 241 -324 521 -456 761 -125 226 -163
273 -352 425 -163 132 -345 287 -349 298 -5 12 -7 12 190 -16z m-18329 -217
c6 -177 23 -290 69 -468 46 -175 48 -155 -23 -250 -86 -117 -212 -237 -327
-314 -122 -81 -167 -101 -198 -87 -45 20 -39 45 34 138 133 169 196 298 243
498 58 240 80 323 131 483 28 89 55 162 58 162 4 0 10 -73 13 -162z m4294 131
c87 -15 203 -91 203 -133 0 -13 -62 -3 -288 45 -186 40 -249 50 -294 46 -56
-5 -81 5 -62 23 25 25 332 38 441 19z m391 -35 c390 -78 676 -276 877 -607 43
-72 47 -82 44 -135 -1 -31 1 -93 5 -138 5 -51 4 -95 -3 -120 -12 -46 -69 -136
-83 -132 -5 2 -22 39 -37 83 -96 272 -250 470 -561 717 -141 112 -271 234
-332 311 -28 35 -29 37 -8 37 11 0 56 -7 98 -16z m-7583 -180 c134 -34 289
-42 413 -20 238 42 392 2 490 -127 22 -29 70 -101 107 -162 87 -144 155 -238
260 -358 108 -126 109 -139 15 -178 -96 -39 -170 -32 -330 30 -74 28 -136 54
-139 56 -2 3 8 14 22 26 29 22 35 50 15 67 -7 5 -85 33 -173 61 -88 29 -187
66 -221 82 -84 42 -214 157 -326 291 -52 62 -128 146 -168 186 -40 39 -71 72
-69 72 3 0 49 -12 104 -26z m5165 -39 c0 -3 -64 -37 -142 -76 -79 -39 -179
-92 -223 -117 -124 -70 -439 -282 -545 -367 -211 -169 -248 -211 -264 -297
-10 -58 -34 -68 -153 -68 -56 0 -104 4 -107 9 -3 4 103 104 236 222 527 468
649 556 883 638 117 42 315 77 315 56z m-23050 -306 c38 -75 41 -77 150 -149
210 -136 480 -265 732 -349 69 -23 131 -48 137 -54 6 -8 12 -1746 16 -5207 4
-2857 10 -5199 15 -5204 4 -4 76 -16 159 -27 501 -61 1044 -156 1536 -270 121
-28 226 -55 233 -59 20 -10 -104 -157 -318 -375 -108 -110 -204 -220 -249
-282 -40 -57 -77 -105 -82 -109 -5 -3 -143 26 -306 65 -670 157 -993 210
-1035 168 -11 -12 -19 -47 -25 -114 -12 -150 0 -3051 27 -6358 5 -638 13
-1856 16 -2707 5 -1111 10 -1554 18 -1570 24 -49 -246 -42 2896 -78 465 -6
1493 -17 2285 -25 792 -8 1733 -20 2090 -26 358 -6 846 -9 1086 -7 394 4 440
6 463 22 15 9 31 28 36 41 21 56 78 577 102 935 15 235 15 921 -1 1150 -32
475 -93 946 -176 1349 -14 68 -25 128 -25 132 0 5 24 21 53 35 173 87 362 223
522 375 135 128 252 229 266 229 6 0 0 -17 -12 -38 -52 -84 -109 -154 -234
-282 -170 -174 -201 -229 -226 -393 -6 -39 -27 -118 -46 -175 -34 -98 -38
-152 -12 -152 14 0 44 35 92 108 177 266 280 377 435 469 51 30 120 77 154
104 58 47 63 48 70 29 13 -36 96 -546 122 -755 117 -929 123 -1854 19 -2755
-33 -288 -33 -316 0 -373 51 -86 -244 -79 2876 -69 1521 5 3007 9 3301 8 294
0 2843 3 5663 8 4656 8 5131 11 5148 25 29 24 35 141 14 266 -29 181 -74 560
-67 567 4 4 57 -17 117 -47 189 -94 399 -131 604 -106 60 8 98 8 104 2 5 -5
23 -87 39 -182 45 -266 83 -438 105 -467 11 -15 35 -35 54 -44 32 -17 93 -18
859 -18 454 0 1219 7 1700 15 481 8 1465 19 2185 25 2740 22 3418 30 3680 39
383 15 413 18 441 47 l24 23 0 273 c0 150 7 552 15 893 8 341 20 1133 25 1760
6 627 15 1277 20 1445 5 168 14 825 20 1460 5 635 14 1427 20 1760 5 333 15
873 20 1200 20 1155 33 2045 33 2083 -1 46 -24 73 -72 88 -63 19 -627 -50
-1046 -127 -999 -184 -1916 -494 -2864 -969 -138 -69 -261 -125 -273 -125 -13
0 -38 9 -56 20 -94 58 -516 245 -752 334 -69 26 -129 51 -133 55 -10 10 254
154 553 302 740 367 1491 644 2289 844 633 158 1154 243 2029 330 139 14 262
30 273 36 43 23 47 54 58 504 7 237 16 846 21 1355 5 509 14 1128 20 1375 5
248 16 936 25 1530 8 594 17 1136 20 1205 4 69 10 509 14 978 5 469 11 855 14
858 2 3 49 -6 103 -20 181 -45 239 -51 464 -51 212 0 217 1 328 33 62 17 120
32 129 32 15 0 15 -63 9 -742 -13 -1422 -26 -3154 -36 -4833 -12 -2006 -27
-3997 -40 -5505 -24 -2727 -46 -6035 -55 -8275 -6 -1444 -13 -1779 -38 -1801
-9 -8 -920 -9 -3232 -3 -1771 4 -5321 12 -7890 18 -2568 6 -6436 16 -8595 21
-2159 5 -5894 14 -8300 20 -2406 6 -5693 16 -7305 23 -1611 6 -3099 10 -3306
9 l-377 -3 2 1128 c0 620 -4 1742 -11 2493 -7 751 -17 3417 -23 5925 -10 4266
-21 8099 -39 12840 -4 1100 -5 2004 -3 2009 5 8 41 -54 112 -195z m32008 -35
c409 -153 862 -332 909 -360 55 -32 79 -65 146 -206 35 -72 119 -209 221 -362
129 -193 185 -286 259 -438 110 -223 200 -447 195 -485 -4 -36 -71 -70 -165
-83 -159 -22 -251 -85 -317 -217 -37 -74 -89 -123 -130 -123 -23 0 -96 61
-240 200 -90 88 -127 134 -225 280 -131 198 -230 326 -361 467 -339 366 -529
803 -569 1303 -8 107 -7 120 10 120 5 0 125 -43 267 -96z m2272 49 c66 -39
182 -82 221 -83 43 0 76 -35 99 -104 43 -131 105 -187 246 -223 136 -34 179
-59 262 -150 72 -80 130 -120 210 -144 72 -21 120 -104 75 -127 -33 -17 -212
-35 -276 -28 -34 4 -173 32 -308 62 -136 29 -406 86 -600 125 -402 81 -528
111 -718 175 -141 48 -368 140 -376 154 -3 4 43 8 103 7 90 0 118 4 177 25 39
14 135 49 215 78 167 61 344 143 480 223 61 36 102 54 113 51 11 -3 45 -22 77
-41z m-7566 -608 c102 -150 232 -387 256 -462 10 -34 24 -99 30 -145 6 -45 20
-128 31 -183 42 -220 11 -311 -141 -417 -171 -120 -280 -251 -359 -433 -24
-55 -100 -212 -169 -349 -148 -293 -147 -293 -143 -31 8 436 9 428 -49 655
-28 113 -54 239 -57 281 -11 153 53 332 166 464 34 39 74 95 90 125 41 77 180
495 187 561 3 30 8 70 10 89 l6 35 34 -40 c19 -22 68 -89 108 -150z m-16948
144 c87 -6 163 -14 167 -19 16 -15 -344 -432 -649 -752 -185 -194 -451 -451
-669 -646 -225 -201 -504 -430 -528 -434 -12 -2 -81 9 -153 24 -345 70 -572
73 -969 14 -259 -38 -253 -37 -550 -131 -435 -138 -773 -236 -859 -250 -164
-27 -321 -16 -475 34 -116 36 -125 50 -106 156 21 116 59 240 106 347 89 198
92 212 100 433 6 159 12 215 29 274 49 171 156 390 278 570 89 132 82 128 273
160 83 15 208 24 387 31 145 6 359 17 476 26 119 9 454 19 771 24 722 11 1015
31 1480 100 143 21 278 41 300 43 90 8 442 6 591 -4z m23641 -109 c201 -69
390 -120 628 -169 110 -23 301 -66 425 -96 353 -85 557 -118 805 -131 98 -6
132 -11 148 -24 19 -16 20 -21 9 -44 -22 -49 -95 -138 -150 -183 -86 -69 -135
-93 -270 -133 -175 -50 -232 -81 -329 -173 l-81 -78 -124 -29 c-161 -37 -353
-99 -509 -166 -69 -30 -132 -54 -140 -54 -9 0 -25 37 -47 108 -40 129 -241
634 -327 822 -34 74 -94 191 -133 259 -61 108 -74 141 -57 141 2 0 71 -23 152
-50z m1483 -1096 c63 -89 78 -114 65 -114 -20 0 -235 72 -240 81 -8 12 83 119
100 119 7 0 41 -39 75 -86z m-7726 -200 c32 -169 191 -638 295 -873 28 -62 51
-127 51 -144 0 -20 -17 -55 -50 -104 -104 -149 -140 -269 -140 -463 0 -283
-21 -434 -110 -800 -89 -371 -137 -688 -160 -1060 -6 -96 -13 -181 -16 -189
-3 -10 -24 -12 -92 -9 -177 9 -264 91 -293 279 -13 83 -12 100 31 428 16 128
30 250 30 270 0 25 -12 57 -36 97 -93 153 -143 285 -165 434 -10 68 -9 121 1
270 7 103 11 215 8 251 -9 106 -74 211 -175 280 -27 19 -43 37 -43 51 0 49
157 377 256 534 31 49 90 150 132 224 114 204 143 242 306 406 83 84 154 152
157 153 4 0 10 -15 13 -35z m-19276 -646 c-87 -102 -187 -207 -498 -523 -438
-445 -802 -847 -1202 -1327 -146 -175 -197 -229 -223 -238 -28 -9 -60 -4 -236
41 -182 46 -218 53 -336 57 -148 5 -224 -7 -365 -60 -139 -51 -266 -42 -312
24 -35 49 -22 101 75 303 109 226 111 241 56 331 -25 39 -40 77 -43 110 -14
116 112 471 242 686 l37 60 -17 120 c-9 66 -15 122 -12 125 2 2 51 -7 108 -21
199 -49 382 -57 548 -22 36 8 218 60 405 116 187 56 365 108 395 116 37 10
142 18 315 24 345 12 728 59 1020 125 102 22 103 21 43 -47z m19805 -730 c135
-205 198 -280 557 -659 257 -272 457 -495 464 -517 13 -40 -54 -278 -136 -486
-97 -247 -112 -414 -105 -1206 3 -450 6 -507 26 -630 12 -74 24 -157 28 -183
6 -47 5 -49 -19 -45 -16 2 -61 44 -140 133 -122 138 -158 168 -251 211 -55 25
-85 31 -255 53 -106 13 -157 43 -218 124 -73 97 -119 197 -138 299 -24 126
-52 211 -102 308 -61 118 -127 201 -208 262 l-69 51 6 146 c11 274 44 404 185
726 124 285 184 469 244 748 29 137 31 153 35 460 3 174 9 317 13 317 5 0 42
-51 83 -112z m1668 -1825 c184 -183 341 -344 349 -358 11 -21 9 -39 -24 -152
-47 -163 -82 -335 -101 -499 -17 -150 -20 -528 -4 -602 5 -28 38 -96 74 -157
67 -112 111 -226 122 -312 l6 -51 -54 -11 c-137 -30 -290 -23 -399 18 -25 10
-97 51 -160 91 -63 41 -149 88 -190 104 -68 27 -89 31 -225 36 l-150 5 -17 50
c-23 67 -22 163 2 402 26 250 50 432 100 753 22 140 48 329 59 420 13 106 37
230 66 345 39 151 47 199 50 295 1 63 4 117 4 120 1 3 36 -33 79 -79 42 -47
228 -235 413 -418z m-23462 398 c15 -10 7 -19 -189 -231 -429 -464 -1164
-1210 -1191 -1210 -23 0 -34 66 -26 171 6 91 31 151 121 294 93 146 150 364
222 848 7 47 22 54 92 39 47 -10 65 -8 150 13 125 31 303 63 417 74 121 11
387 13 404 2z m20644 -153 c-14 -64 -18 -127 -18 -280 l0 -198 -24 63 c-36 94
-41 259 -11 359 24 78 58 153 67 145 2 -3 -4 -43 -14 -89z m3399 -865 c326
-422 783 -946 950 -1091 47 -40 107 -88 134 -106 54 -36 410 -242 713 -411
l195 -109 -165 -22 c-175 -24 -254 -39 -416 -80 l-102 -26 -83 27 c-115 38
-235 99 -353 180 -205 140 -230 146 -627 152 -230 4 -318 8 -318 17 0 6 -15
108 -34 226 l-34 215 8 530 c4 292 11 541 15 555 4 14 8 31 11 38 7 25 25 10
106 -95z m-2593 -225 c21 -46 58 -152 80 -237 43 -161 81 -252 150 -359 33
-50 51 -67 96 -89 56 -28 69 -43 37 -43 -37 0 -123 53 -172 107 -97 106 -140
203 -165 372 -9 63 -32 158 -51 212 -37 105 -39 119 -24 119 5 0 27 -37 49
-82z m-23699 -5598 c157 -45 288 -85 292 -89 4 -3 -18 -38 -49 -76 -115 -143
-213 -314 -264 -462 -26 -76 -24 -106 9 -145 15 -18 33 -46 40 -61 7 -15 16
-25 22 -22 5 3 22 45 36 93 23 75 41 106 127 227 56 77 120 167 143 200 35 50
122 127 190 167 23 14 598 -206 978 -374 371 -164 838 -402 1181 -601 185
-108 445 -269 445 -276 0 -3 -23 -37 -51 -74 -33 -44 -106 -114 -208 -199
-252 -210 -598 -468 -628 -468 -10 0 -52 22 -95 49 -562 361 -1325 750 -1988
1016 -344 138 -729 272 -1092 380 -62 18 -88 31 -88 42 0 28 219 295 391 477
110 117 300 288 314 283 6 -3 139 -42 295 -87z m28722 -1345 c396 -79 553
-124 722 -210 112 -56 157 -92 130 -102 -49 -18 -611 -413 -852 -598 -89 -69
-168 -125 -174 -125 -20 0 -628 614 -620 625 18 26 192 153 237 174 28 12 68
40 90 61 22 21 60 48 84 60 23 12 72 48 107 81 76 71 87 72 276 34z m-24872
-568 c304 -237 376 -297 378 -319 6 -48 -138 -223 -467 -570 -91 -95 -191
-201 -224 -236 -33 -34 -63 -61 -67 -60 -4 2 -40 33 -80 70 l-73 67 24 78 c18
59 23 100 23 171 -1 70 2 92 13 92 7 0 13 -1 13 -2 0 -2 9 -44 19 -93 17 -82
17 -97 4 -159 -17 -85 -5 -108 33 -61 13 17 27 38 30 48 9 27 29 20 45 -15 8
-18 21 -33 29 -33 22 0 16 108 -14 230 -13 55 -23 101 -22 102 1 1 37 -11 81
-27 43 -16 82 -27 87 -24 5 3 31 0 58 -7 66 -17 79 -4 42 41 -15 19 -34 48
-42 64 -21 41 -65 70 -143 95 -123 39 -199 106 -261 228 -68 135 -85 262 -52
375 26 90 134 238 173 238 10 -1 187 -132 393 -293z m23862 -183 c109 -88 387
-368 462 -467 l59 -77 -174 -167 c-292 -280 -637 -639 -873 -911 -49 -56 -94
-102 -101 -102 -6 0 -31 35 -55 78 -106 186 -233 353 -392 517 -54 55 -100
106 -103 113 -18 47 1010 1080 1077 1082 9 0 54 -30 100 -66z m-24617 -186
c28 -56 78 -144 113 -196 58 -87 62 -98 62 -150 0 -88 -50 -238 -75 -228 -7 2
-71 50 -144 106 -180 139 -213 200 -176 326 27 94 124 244 159 244 6 0 34 -46
61 -102z m2023 -808 c172 -196 418 -501 439 -546 21 -44 11 -76 -43 -134 -138
-148 -293 -133 -470 44 -97 97 -138 171 -159 293 -22 119 -19 315 6 436 11 55
23 105 26 110 8 12 38 -19 201 -203z m-714 -10 c-18 -133 -17 -380 2 -509 8
-58 46 -227 84 -374 48 -185 65 -267 56 -265 -8 2 -64 66 -126 143 -134 167
-282 336 -402 461 -49 50 -88 95 -88 100 0 5 48 54 107 109 122 114 233 243
311 363 30 46 58 80 62 75 4 -4 1 -51 -6 -103z m21979 -440 c147 -176 357
-508 396 -628 l14 -40 -80 -114 c-773 -1100 -1275 -2258 -1537 -3547 l-41
-206 -35 3 c-19 1 -120 3 -225 4 -204 2 -307 -11 -466 -57 -44 -12 -82 -19
-84 -14 -8 11 39 326 80 544 96 505 277 1162 457 1655 27 74 55 144 62 155 7
11 32 63 56 115 23 52 55 122 71 154 16 33 29 69 29 81 0 34 22 47 69 39 36
-6 41 -4 41 13 0 11 8 29 18 40 13 16 21 54 30 154 12 125 15 140 56 224 131
275 570 1002 647 1073 20 19 33 22 89 21 36 -1 75 1 88 5 48 16 163 224 164
297 0 22 -9 52 -22 74 -12 19 -19 42 -16 51 13 35 52 8 139 -96z m-20403 -702
c342 -548 650 -1184 845 -1741 30 -85 36 -112 28 -130 -28 -62 -351 -443 -601
-711 -189 -202 -231 -240 -255 -230 -10 3 -38 77 -77 196 -204 631 -501 1269
-859 1846 l-83 133 27 66 c59 148 88 363 67 503 -5 36 -8 68 -6 71 2 4 32 -2
66 -13 164 -53 464 3 658 122 36 21 72 39 80 40 9 0 55 -63 110 -152z m19018
-4267 c60 -9 79 -24 84 -65 6 -54 -15 -54 -203 4 -96 29 -181 56 -189 61 -19
10 234 10 308 0z m-483 -316 c117 -16 390 -80 459 -109 66 -27 66 -29 66 -540
0 -400 -2 -456 -16 -470 -8 -9 -20 -16 -26 -16 -41 0 -286 59 -397 96 -143 48
-332 132 -347 155 -19 30 -30 191 -18 258 9 46 11 142 7 326 -4 176 -2 269 6
288 10 26 13 27 80 27 39 0 122 -7 186 -15z"/>
<path d="M32621 48663 c7 -10 15 -20 16 -22 2 -2 3 5 3 17 0 14 -6 22 -16 22
-14 0 -15 -3 -3 -17z"/>
<path d="M24861 34857 c-13 -35 -17 -112 -6 -112 14 1 49 101 41 120 -8 22
-25 18 -35 -8z"/>
<path d="M37503 34160 c-31 -13 -29 -27 10 -50 60 -38 134 -7 93 39 -20 22
-64 27 -103 11z"/>
<path d="M2451 24554 c0 -11 3 -14 6 -6 3 7 2 16 -1 19 -3 4 -6 -2 -5 -13z"/>
<path d="M7371 1911 c-24 -45 -2 -89 38 -76 24 7 38 51 24 74 -15 24 -50 25
-62 2z"/>
</g>
</svg>
